<svg width="259" height="259" viewBox="0 0 259 259" fill="none" xmlns="http://www.w3.org/2000/svg">
<rect width="259" height="259" rx="129.5" fill="#141D2E"/>
<path d="M134.027 50.0483L195.269 85.6921C198.038 87.3039 199.741 90.2664 199.741 93.4705V165.01C199.741 168.214 198.038 171.177 195.269 172.788L134.027 208.432C131.229 210.061 127.771 210.061 124.973 208.432L63.7315 172.788C60.9622 171.177 59.2587 168.214 59.2587 165.01V93.4706C59.2587 90.2664 60.9622 87.3039 63.7315 85.6921L124.973 50.0483C127.771 48.4196 131.229 48.4196 134.027 50.0483Z" fill="#141D2E" stroke="white" stroke-width="18"/>
<line x1="129.947" y1="147.451" x2="129.947" y2="201.345" stroke="white" stroke-width="8"/>
<line x1="67.3152" y1="93.9866" x2="113.41" y2="121.91" stroke="white" stroke-width="8"/>
<line x1="147.918" y1="121.643" x2="193.931" y2="93.5848" stroke="white" stroke-width="8"/>
</svg>
