<svg width="56" height="56" viewBox="0 0 56 56" fill="none" xmlns="http://www.w3.org/2000/svg">
<path d="M41.7028 21.6543C41.7026 21.1363 41.5919 20.6786 41.3678 20.2859C41.1478 19.8995 40.8182 19.5757 40.3762 19.3198C36.7274 17.2158 33.075 15.1183 29.4273 13.0122C28.4439 12.4445 27.4905 12.4653 26.5144 13.0412C25.062 13.8976 17.7907 18.0636 15.6239 19.3186C14.7315 19.8353 14.2973 20.6258 14.2971 21.6533C14.2957 25.8844 14.2971 30.1156 14.2957 34.3467C14.2957 34.8533 14.402 35.3022 14.6161 35.6891C14.8363 36.087 15.1705 36.4197 15.6227 36.6815C17.7896 37.9365 25.0619 42.1021 26.514 42.9588C27.4905 43.535 28.4439 43.5556 29.4277 42.9878C33.0754 40.8816 36.728 38.7841 40.3774 36.6802C40.8296 36.4185 41.1638 36.0856 41.3839 35.688C41.5978 35.3011 41.7042 34.8523 41.7042 34.3456C41.7042 34.3456 41.7042 25.8855 41.7028 21.6543Z" fill="#A179DC"/>
<path d="M28.0419 27.9587L14.6161 35.689C14.8363 36.087 15.1705 36.4196 15.6227 36.6814C17.7896 37.9364 25.0619 42.1021 26.514 42.9588C27.4905 43.535 28.444 43.5556 29.4277 42.9877C33.0754 40.8816 36.728 38.7841 40.3774 36.6801C40.8296 36.4185 41.1638 36.0856 41.3839 35.6879L28.0419 27.9587Z" fill="#280068"/>
<path d="M41.7029 21.6543C41.7027 21.1363 41.5919 20.6786 41.3679 20.2859L28.0419 27.9589L41.384 35.688C41.5978 35.3011 41.7041 34.8523 41.7043 34.3456C41.7043 34.3456 41.7043 25.8855 41.7029 21.6543" fill="#390091"/>
<path d="M35.9466 25.0691V26.514H37.3915V25.0691H38.114V26.514H39.5589V27.2365H38.114V28.6813H39.5589V29.4038H38.114V30.8488H37.3915V29.4038H35.9466V30.8488H35.2241V29.4038H33.7792V28.6813H35.2241V27.2365H33.7792V26.514H35.2241V25.0691H35.9466ZM37.3915 27.2364H35.9466V28.6813H37.3915V27.2364Z" fill="#1E2235"/>
<path d="M28.0714 17.8124C31.8403 17.8124 35.1307 19.8591 36.8932 22.9015L36.876 22.8723L32.4416 25.4254C31.5681 23.9463 29.9666 22.948 28.1292 22.9274L28.0713 22.9271C25.2697 22.9271 22.9983 25.1984 22.9983 28C22.9974 28.8831 23.2281 29.7509 23.6674 30.517C24.5418 32.0435 26.1857 33.0731 28.0714 33.0731C29.9688 33.0731 31.622 32.0304 32.4919 30.4876L32.4708 30.5246L36.8984 33.0895C35.1552 36.1062 31.9098 38.1466 28.1849 38.1873L28.0714 38.1879C24.2907 38.1879 20.9909 36.1285 19.2328 33.07C18.3746 31.5769 17.8835 29.846 17.8835 28C17.8835 22.3736 22.4447 17.8123 28.0713 17.8123L28.0714 17.8124Z" fill="#1E2235"/>
</svg>
