<svg width="57" height="56" viewBox="0 0 57 56" fill="none" xmlns="http://www.w3.org/2000/svg">
<path d="M43.7827 30.9079C43.6018 30.3617 43.128 29.9812 42.5153 29.8899C42.2263 29.8469 41.8955 29.8652 41.5039 29.9457C40.8214 30.0861 40.3151 30.1396 39.9455 30.1499C41.3403 27.8016 42.4745 25.1238 43.1274 22.603C44.1832 18.5269 43.619 16.67 42.9597 15.8301C41.215 13.607 38.6694 12.4127 35.5984 12.3761C33.9602 12.3562 32.5221 12.6787 31.7718 12.9106C31.0733 12.7877 30.3222 12.7191 29.5342 12.7064C28.0569 12.6829 26.7516 13.0041 25.6364 13.6641C25.0189 13.4559 24.0279 13.1623 22.8835 12.975C20.192 12.5344 18.0227 12.8777 16.4359 13.9956C14.5146 15.3489 13.6239 17.7004 13.7886 20.9846C13.8409 22.0273 14.4258 25.1999 15.3468 28.2087C15.8761 29.9381 16.4405 31.3742 17.0244 32.4775C17.8524 34.0421 18.7384 34.9634 19.733 35.2943C20.2905 35.4795 21.3034 35.6092 22.3687 34.7244C22.5038 34.8875 22.6839 35.0496 22.923 35.2001C23.2267 35.391 23.598 35.5471 23.9688 35.6395C25.3051 35.9727 26.5569 35.8893 27.6248 35.4224C27.6314 35.6118 27.6365 35.7928 27.6407 35.949C27.6478 36.2025 27.6548 36.451 27.6641 36.6834C27.7274 38.2549 27.8347 39.4768 28.1523 40.3318C28.1698 40.3788 28.1932 40.4504 28.218 40.5265C28.3765 41.0103 28.6415 41.8204 29.3157 42.4548C30.0139 43.112 30.8584 43.3135 31.6318 43.3135C32.0197 43.3135 32.3898 43.2628 32.7145 43.1934C33.8716 42.9461 35.1858 42.5694 36.1365 41.2195C37.0353 39.9434 37.4722 38.0214 37.5513 34.993C37.5615 34.9074 37.571 34.8256 37.58 34.7477L37.5989 34.5877L37.8106 34.6062L37.8652 34.6099C39.0438 34.6634 40.4849 34.4142 41.3699 34.0043C42.0693 33.6806 44.3103 32.5008 43.7827 30.9079" fill="black"/>
<path d="M41.7675 31.2176C38.2632 31.9385 38.0222 30.7554 38.0222 30.7554C41.7222 25.2806 43.269 18.3311 41.9343 16.6303C38.2927 11.9907 31.9892 14.1849 31.884 14.2418L31.8502 14.2479C31.1578 14.1045 30.3831 14.0192 29.5121 14.005C27.9266 13.9792 26.7237 14.4196 25.811 15.1098C25.811 15.1098 14.5662 10.4903 15.0892 20.9196C15.2005 23.1383 18.2783 37.7075 21.9493 33.307C23.291 31.6978 24.5875 30.3372 24.5875 30.3372C25.2314 30.7637 26.0022 30.9813 26.8103 30.9032L26.8732 30.8501C26.8536 31.0498 26.8625 31.2452 26.8983 31.4766C25.9525 32.5303 26.2305 32.7152 24.34 33.1033C22.4269 33.4965 23.5507 34.1963 24.2845 34.3794C25.174 34.6011 27.2318 34.9153 28.6223 32.9743L28.5669 33.1958C28.9374 33.4918 29.1975 35.1208 29.1539 36.5977C29.1103 38.0745 29.0812 39.0884 29.3731 39.8804C29.6652 40.6724 29.9561 42.4543 32.4415 41.9233C34.5181 41.4795 35.5942 40.3295 35.744 38.4112C35.8502 37.0474 36.0907 37.2491 36.1057 36.0297L36.2986 35.4526C36.521 33.6039 36.334 33.0074 37.6133 33.2849L37.9244 33.3121C38.8659 33.3548 40.0984 33.161 40.8218 32.8258C42.3793 32.105 43.3031 30.9014 41.7673 31.2176H41.7675" fill="#336791"/>
<path d="M26.4692 21.9119C26.1534 21.8681 25.8675 21.9086 25.7228 22.0179C25.6415 22.0793 25.6162 22.1505 25.6094 22.1995C25.5913 22.3294 25.6825 22.473 25.7385 22.547C25.8972 22.7566 26.1288 22.9007 26.3581 22.9324C26.3913 22.9371 26.4245 22.9392 26.4573 22.9392C26.8397 22.9392 27.1874 22.6423 27.2181 22.4232C27.2564 22.1487 26.8568 21.9657 26.4692 21.912V21.9119ZM36.9309 21.9206C36.9008 21.7054 36.5169 21.6441 36.1525 21.6946C35.7887 21.7452 35.4359 21.909 35.4653 22.1246C35.4889 22.2923 35.7926 22.5785 36.152 22.5785C36.1824 22.5785 36.213 22.5765 36.2439 22.5721C36.4838 22.539 36.6598 22.3871 36.7435 22.2995C36.8707 22.1661 36.9445 22.0173 36.9309 21.9206" fill="white"/>
<path d="M42.9336 31.1357C42.8 30.7328 42.3699 30.6032 41.6554 30.7503C39.5338 31.187 38.774 30.8845 38.5245 30.7013C40.1736 28.1962 41.5302 25.1679 42.2621 22.3425C42.6088 21.0042 42.8002 19.7612 42.8159 18.7481C42.8332 17.6362 42.6433 16.8191 42.2516 16.3199C40.6724 14.3077 38.3546 13.2283 35.549 13.1987C33.6202 13.1771 31.9905 13.6693 31.6746 13.8077C31.0093 13.6427 30.2841 13.5414 29.4945 13.5285C28.0465 13.5051 26.7949 13.8508 25.7587 14.5555C25.3086 14.3884 24.1453 13.9902 22.7227 13.7616C20.2633 13.3668 18.3089 13.666 16.9142 14.6513C15.2501 15.827 14.4818 17.9286 14.6306 20.8977C14.6807 21.8966 15.2515 24.9695 16.1522 27.9124C17.3378 31.7858 18.6267 33.9785 19.9827 34.4296C20.1414 34.4823 20.3244 34.5192 20.5263 34.5192C21.021 34.5192 21.6274 34.2969 22.2584 33.5404C23.0281 32.6198 23.8242 31.7214 24.6459 30.8466C25.1789 31.1319 25.7646 31.2912 26.3635 31.3072C26.3647 31.3228 26.3662 31.3384 26.3676 31.3539C26.2645 31.4765 26.1636 31.6009 26.0648 31.727C25.6498 32.2524 25.5634 32.3618 24.2276 32.636C23.8475 32.7143 22.8383 32.9217 22.8235 33.6272C22.8074 34.398 24.0165 34.7217 24.1543 34.756C24.6343 34.8759 25.0968 34.935 25.5379 34.935C26.6105 34.935 27.5545 34.5834 28.3088 33.9032C28.2856 36.6511 28.4005 39.3588 28.7314 40.1838C29.0024 40.8592 29.6644 42.5098 31.7555 42.5097C32.0623 42.5097 32.4 42.4741 32.7715 42.3946C34.9539 41.9281 35.9017 40.9663 36.2683 38.8457C36.4644 37.7124 36.8011 35.0062 36.9595 33.5545C37.2936 33.6585 37.7238 33.7061 38.1889 33.706C39.1589 33.706 40.2782 33.5005 40.9802 33.1756C41.7687 32.8104 43.1917 31.9143 42.9336 31.1357V31.1357ZM37.7365 21.3266C37.7293 21.7551 37.6701 22.1442 37.6074 22.5503C37.5399 22.987 37.4702 23.4386 37.4526 23.9867C37.4353 24.5202 37.5021 25.0748 37.5667 25.6112C37.6972 26.6946 37.8312 27.8099 37.3126 28.9105C37.2265 28.7583 37.1497 28.6009 37.0828 28.4394C37.0184 28.2836 36.8784 28.0333 36.6846 27.6869C35.9305 26.3385 34.1648 23.1807 35.0687 21.8921C35.338 21.5086 36.0213 21.1143 37.7365 21.3266V21.3266ZM35.6574 14.0664C38.1713 14.1218 40.1598 15.0596 41.5677 16.8536C42.6475 18.2297 41.4585 24.4911 38.0162 29.8928C37.9816 29.8489 37.9468 29.8052 37.9118 29.7615L37.8682 29.7073C38.7577 28.2423 38.5838 26.793 38.429 25.5079C38.3653 24.9806 38.3052 24.4825 38.3206 24.0146C38.3363 23.5187 38.4021 23.0934 38.4657 22.6821C38.5439 22.1753 38.6234 21.6509 38.6015 21.0327C38.6179 20.9679 38.6245 20.8913 38.6158 20.8003C38.5599 20.2075 37.8812 18.4333 36.4978 16.8275C35.7411 15.9492 34.6376 14.9663 33.1308 14.3033C33.7789 14.1694 34.6651 14.0445 35.6574 14.0664V14.0664ZM21.5907 32.9868C20.8955 33.8203 20.4154 33.6605 20.2575 33.6081C19.2288 33.266 18.0352 31.0978 16.9828 27.6597C16.0722 24.6847 15.5401 21.6932 15.4979 20.8544C15.365 18.2014 16.0099 16.3525 17.4148 15.3589C19.7012 13.742 23.4603 14.7098 24.9709 15.2006C24.9492 15.222 24.9265 15.2419 24.9051 15.2637C22.4264 17.7599 22.4852 22.0248 22.4913 22.2855C22.491 22.3861 22.4995 22.5285 22.5111 22.7244C22.5537 23.4418 22.6332 24.7768 22.4211 26.2887C22.224 27.6937 22.6584 29.0689 23.6125 30.0616C23.7104 30.1633 23.8133 30.2601 23.9208 30.3516C23.4962 30.8052 22.5732 31.8082 21.5907 32.9868V32.9868ZM24.2395 29.4625C23.4705 28.6623 23.1212 27.5493 23.2811 26.4086C23.505 24.8115 23.4224 23.4205 23.378 22.6732C23.3717 22.5686 23.3662 22.477 23.363 22.4047C23.7251 22.0845 25.4032 21.1879 26.5999 21.4614C27.1459 21.586 27.4787 21.9569 27.617 22.5947C28.333 25.8969 27.7118 27.2732 27.2126 28.3792C27.1098 28.6071 27.0126 28.8225 26.9296 29.0452L26.8653 29.2175C26.7024 29.653 26.5509 30.0579 26.457 30.4424C25.6394 30.44 24.8442 30.0917 24.2395 29.4624V29.4625ZM24.365 33.9159C24.1262 33.8564 23.9115 33.7531 23.7856 33.6675C23.8908 33.6181 24.078 33.5509 24.4028 33.4842C25.9743 33.1616 26.2171 32.9339 26.7471 32.2628C26.8686 32.1089 27.0063 31.9345 27.1971 31.7221L27.1973 31.7218C27.4814 31.4046 27.6114 31.4584 27.847 31.5559C28.0381 31.6347 28.2241 31.8734 28.2995 32.1362C28.3352 32.2602 28.3753 32.4957 28.2441 32.679C27.137 34.2249 25.5236 34.205 24.365 33.9159V33.9159ZM32.5896 41.5479C30.667 41.9587 29.9863 40.9805 29.5377 39.8622C29.2482 39.1403 29.1059 35.8847 29.2068 32.2895C29.2081 32.2417 29.2013 32.1955 29.1881 32.152C29.1763 32.0662 29.1584 31.9813 29.1344 31.898C28.9843 31.3749 28.6184 30.9373 28.1795 30.7559C28.0051 30.6838 27.685 30.5516 27.3004 30.6498C27.3824 30.3128 27.5247 29.9322 27.6789 29.5201L27.7436 29.3468C27.8164 29.1514 27.9079 28.9489 28.0045 28.7346C28.5268 27.5774 29.2422 25.9924 28.4658 22.4117C28.175 21.0706 27.2038 20.4156 25.7316 20.5678C24.849 20.6588 24.0415 21.0139 23.6387 21.2176C23.5521 21.2613 23.473 21.3036 23.399 21.3447C23.5114 19.9934 23.936 17.468 25.5247 15.8702C26.525 14.8644 27.8571 14.3676 29.4801 14.3944C32.6781 14.4466 34.7289 16.0831 35.8862 17.447C36.8836 18.6222 37.4236 19.806 37.6391 20.4445C36.0183 20.2801 34.916 20.5991 34.3572 21.3958C33.1415 23.1287 35.0223 26.4921 35.9262 28.1086C36.092 28.4049 36.235 28.6609 36.28 28.7697C36.5744 29.4811 36.9555 29.956 37.2337 30.3026C37.319 30.4089 37.4017 30.5119 37.4646 30.6019C36.9737 30.743 36.092 31.0691 36.1723 32.699C36.1075 33.5168 35.6467 37.3458 35.4125 38.6986C35.1035 40.4858 34.444 41.1515 32.5896 41.548V41.5479ZM40.6145 32.3902C40.1126 32.6225 39.2725 32.7968 38.4746 32.8342C37.5932 32.8754 37.1445 32.7358 37.0389 32.6499C36.9894 31.6342 37.3685 31.5281 37.7697 31.4158C37.8327 31.3981 37.8942 31.3809 37.9536 31.3602C37.9905 31.3901 38.0309 31.4199 38.0752 31.449C38.7836 31.9153 40.0472 31.9655 41.8311 31.5984L41.8506 31.5945C41.61 31.8188 41.1983 32.1198 40.6145 32.3902Z" fill="white"/>
</svg>
