<svg width="31" height="31" viewBox="0 0 31 31" fill="none" xmlns="http://www.w3.org/2000/svg">
<path d="M16.4112 -2.51501e-06C18.13 -2.28961e-06 19.832 0.400917 21.42 1.17986C23.0081 1.95881 24.451 3.10053 25.6664 4.53984C26.8818 5.97915 27.8459 7.68786 28.5037 9.56841C29.1615 11.449 29.5 13.4645 29.5 15.5C29.5 17.5355 29.1615 19.551 28.5037 21.4316C27.8459 23.3121 26.8818 25.0208 25.6664 26.4602C24.451 27.8995 23.008 29.0412 21.42 29.8201C19.832 30.5991 18.13 31 16.4111 31L15.1394 28.8186C9.87772 19.7936 10.3749 8.52646 16.4112 -2.51501e-06Z" fill="#12213E"/>
<rect x="29.5" y="29.5" width="28" height="28" rx="14" transform="rotate(-180 29.5 29.5)" stroke="#12213E" stroke-width="3"/>
</svg>
