<svg width="30" height="30" viewBox="0 0 30 30" fill="none" xmlns="http://www.w3.org/2000/svg">
<path d="M14.5973 15.1897V0.50512C14.5973 0.216479 14.3808 0 14.0922 0C13.8035 0 13.587 0.216479 13.587 0.50512V15.1897C13.587 15.4784 13.8035 15.6949 14.0922 15.6949C14.3808 15.6949 14.5973 15.4784 14.5973 15.1897Z" fill="#12213E"/>
<path d="M9.29354 29.3692L5 21.3234V13.9991H7.70601V17.6793H11.6387V13.9991H14.1644V29.2971L9.29354 29.3692Z" fill="#12213E"/>
<path d="M19.0712 29.3692L23.3647 21.3234V13.9991H20.6227V17.6793H16.6899V13.9991H14.1643V29.2971L19.0712 29.3692Z" fill="#12213E"/>
<path d="M14.2004 0.793762C15.2828 0.793762 16.3292 2.88641 17.5559 3.17505C18.7826 3.49978 19.3599 2.48953 21.1278 2.66993C22.7154 2.85033 22.535 5.01514 25.241 5.19554C24.2668 5.88106 22.9318 6.85523 20.8392 6.63875C19.2517 6.49443 18.8187 5.4481 17.0508 5.84498C15.2828 6.20578 14.886 7.32427 14.2004 7.50467C14.2004 4.14922 14.2004 0.793762 14.2004 0.793762Z" fill="#12213E"/>
</svg>
