<svg width="30" height="30" viewBox="0 0 30 30" fill="none" xmlns="http://www.w3.org/2000/svg">
<path fill-rule="evenodd" clip-rule="evenodd" d="M0 0H30V30H5.89054C5.39361 24.92 8.31677 21.2563 13.9702 18.723C15.6841 18.2242 19.4155 16.4441 19.8752 15C20.8757 12.5291 20.4897 10.8265 19.1551 9.64954C17.9414 9.04228 16.5292 8.6325 13.5382 9.79357C11.3975 10.877 10.5816 12.4981 10.4273 14.3879C9.97931 19.4838 5.92733 22.154 0 23.5622V0ZM26.8315 5.87614C26.8315 7.40334 25.5644 8.64138 24.0014 8.64138C22.4384 8.64138 21.1714 7.40334 21.1714 5.87614C21.1714 4.34894 22.4384 3.1109 24.0014 3.1109C25.5644 3.1109 26.8315 4.34894 26.8315 5.87614Z" fill="#12213E"/>
</svg>
